<?xml version="1.0" encoding="utf-8"?>
<!-- Generator: Adobe Illustrator 16.0.0, SVG Export Plug-In . SVG Version: 6.00 Build 0)  -->
<!DOCTYPE svg PUBLIC "-//W3C//DTD SVG 1.1//EN" "http://www.w3.org/Graphics/SVG/1.1/DTD/svg11.dtd">
<svg version="1.1" id="Layer_1" xmlns="http://www.w3.org/2000/svg" xmlns:xlink="http://www.w3.org/1999/xlink" x="0px" y="0px"
	 width="283.465px" height="283.464px" viewBox="0 0 283.465 283.464" enable-background="new 0 0 283.465 283.464"
	 xml:space="preserve">
<path fill="#FFFF00" d="M253.356,121.207h-47.815c-4.531,0-8.215,3.683-8.215,8.213v24.621c0,4.53,3.684,8.216,8.215,8.216h47.815
	c4.526,0,8.211-3.686,8.211-8.216V129.42C261.567,124.89,257.883,121.207,253.356,121.207 M259.221,154.041
	c0,3.238-2.631,5.868-5.864,5.868h-47.815c-3.237,0-5.868-2.63-5.868-5.868V129.42c0-3.234,2.631-5.867,5.868-5.867h47.815
	c3.233,0,5.864,2.633,5.864,5.867V154.041z M251.067,130.655c-0.647,0-1.174,0.526-1.174,1.173v11.812
	c0,3.234-2.631,5.868-5.866,5.868h-5.087v-2.667c0-0.208-0.114-0.404-0.294-0.507c-0.182-0.107-0.405-0.107-0.589,0l-6.649,3.838
	c-0.182,0.105-0.295,0.3-0.295,0.509c0,0.211,0.113,0.404,0.295,0.506l6.649,3.843c0.092,0.051,0.192,0.078,0.293,0.078
	s0.206-0.027,0.296-0.078c0.18-0.105,0.294-0.3,0.294-0.511v-2.667h5.087c4.53,0,8.215-3.684,8.215-8.212v-11.812
	C252.242,131.182,251.716,130.655,251.067,130.655z M54.733,121.207H30.11c-4.529,0-8.213,3.683-8.213,8.213v24.621
	c0,4.53,3.684,8.216,8.213,8.216h24.623c4.528,0,8.211-3.686,8.211-8.216V129.42C62.944,124.89,59.262,121.207,54.733,121.207z
	 M60.6,154.041c0,3.238-2.631,5.869-5.866,5.869H30.11c-3.234,0-5.866-2.631-5.866-5.869V129.42c0-3.234,2.632-5.867,5.866-5.867
	h24.623c3.235,0,5.866,2.633,5.866,5.867V154.041z M98.587,121.207H73.965c-4.528,0-8.212,3.683-8.212,8.213v24.621
	c0,4.53,3.684,8.216,8.212,8.216h24.622c4.53,0,8.214-3.686,8.214-8.216V129.42C106.801,124.89,103.117,121.207,98.587,121.207z
	 M104.454,154.041c0,3.238-2.633,5.869-5.867,5.869H73.965c-3.234,0-5.866-2.631-5.866-5.869V129.42
	c0-3.234,2.632-5.867,5.866-5.867h24.622c3.234,0,5.867,2.633,5.867,5.867V154.041z M142.442,121.207h-24.621
	c-4.529,0-8.215,3.683-8.215,8.213v24.621c0,4.53,3.686,8.216,8.215,8.216h24.621c4.528,0,8.213-3.686,8.213-8.216V129.42
	C150.655,124.89,146.971,121.207,142.442,121.207z M148.311,154.041c0,3.238-2.634,5.869-5.868,5.869h-24.621
	c-3.235,0-5.868-2.631-5.868-5.869V129.42c0-3.234,2.633-5.867,5.868-5.867h24.621c3.234,0,5.868,2.633,5.868,5.867V154.041z
	 M186.297,121.207h-24.621c-4.529,0-8.216,3.683-8.216,8.213v24.621c0,4.53,3.687,8.216,8.216,8.216h24.621
	c4.528,0,8.213-3.686,8.213-8.216V129.42C194.51,124.89,190.825,121.207,186.297,121.207z M192.163,154.041
	c0,3.238-2.632,5.869-5.866,5.869h-24.621c-3.235,0-5.868-2.631-5.868-5.869V129.42c0-3.234,2.633-5.867,5.868-5.867h24.621
	c3.234,0,5.866,2.633,5.866,5.867V154.041z M43.738,143.689l2.701-2.782c0.428-0.482,0.428-1.23,0-1.685
	c-0.562-0.561-1.444-0.507-1.952,0.028c-1.312,1.336-2.621,2.728-3.932,4.091v-9.496c0-0.641-0.615-1.178-1.364-1.178
	c-0.751,0-1.365,0.537-1.365,1.178v16.637c0,0.694,0.614,1.23,1.365,1.23c0.749,0,1.364-0.537,1.364-1.23v-3.771
	c0,0,0.026,0,1.203-1.231l2.889,5.591c0.216,0.4,0.722,0.642,1.229,0.642c1.018,0,1.604-1.018,1.177-1.819L43.738,143.689z
	 M86.211,133.124c-2.354,0-2.354,3.344,0,3.344C88.617,136.468,88.565,133.124,86.211,133.124z M86.264,138.875
	c-0.774,0-1.391,0.535-1.391,1.229v10.379c0,0.694,0.616,1.23,1.391,1.23c0.724,0,1.338-0.537,1.338-1.23v-10.379
	C87.602,139.411,86.987,138.875,86.264,138.875z M128.822,143.558c-0.669-0.322-0.854-0.67-0.854-1.097
	c0-0.99,1.042-1.258,1.71-1.258c0.911,0,1.606,0.24,1.82,0.962c0.455,1.607,3.316,0.643,2.247-1.31
	c-0.724-1.311-2.247-1.98-4.067-1.98c-2.486,0-4.359,1.55-4.359,3.585c0,1.898,1.338,2.781,2.328,3.261
	c1.122,0.563,4.092,0.856,4.092,2.302c0,0.854-0.643,1.471-1.684,1.471c-1.017,0-1.953-0.32-2.408-1.364
	c-0.723-1.443-3.184-0.374-2.407,1.069c0.962,2.034,2.541,2.622,4.895,2.622c2.192,0,4.36-1.309,4.36-3.797
	C134.494,144.92,130.91,144.517,128.822,143.558z M175.389,143.689l2.7-2.782c0.431-0.482,0.431-1.23,0-1.685
	c-0.562-0.561-1.444-0.507-1.954,0.028c-1.307,1.336-2.62,2.728-3.931,4.091v-9.496c0-0.641-0.614-1.178-1.363-1.178
	c-0.747,0-1.364,0.537-1.364,1.178v16.637c0,0.694,0.617,1.23,1.364,1.23c0.749,0,1.363-0.537,1.363-1.23v-3.771
	c0,0,0.027,0,1.204-1.231l2.888,5.591c0.214,0.4,0.721,0.642,1.231,0.642c1.018,0,1.604-1.018,1.177-1.819L175.389,143.689z"/>
</svg>
